<?xml version="1.0" encoding="utf-8"?>
<!-- Generator: Adobe Illustrator 25.3.1, SVG Export Plug-In . SVG Version: 6.00 Build 0)  -->
<svg version="1.1" id="Layer_1" xmlns="http://www.w3.org/2000/svg" xmlns:xlink="http://www.w3.org/1999/xlink" x="0px" y="0px"
	 viewBox="0 0 1096.1 434.4" style="enable-background:new 0 0 1096.1 434.4;" xml:space="preserve">
<style type="text/css">
	.st0{fill:#808080;}
	.st1{fill:#0083C1;}
	.st2{fill:#001C29;}
	.st3{fill:#FFFFFF;}
</style>
<g>
	<path class="st0" d="M735.9,214.8h-28.6v-25.2h-3l-0.7,0v0.1c-0.9,0.2-1.8,0.5-2.5,1.2c-0.9,0.8-1.4,1.7-1.5,2.9v53.8h7.7v-25.1
		h28.6v25.1h7.6v-57.9h-7.6V214.8z"/>
	<path class="st0" d="M786,189.6L786,189.6c-5.9,0.4-10.8,2.5-14.7,6.2c-4.3,4.2-6.5,9.8-6.5,16.8v12.2c0,6.1,2.2,11.4,6.4,15.7
		c4,4.2,9,6.5,14.8,6.9v0.1l18.6,0v-7.7h-16.8c-4,0-7.6-1.6-10.7-4.6c-3.1-3.1-4.7-6.6-4.7-10.6v-12c0-4,1.6-7.6,4.7-10.6
		c3.1-3.1,6.7-4.6,10.7-4.6h16.8v-7.7h-17.9L786,189.6z"/>
	<path class="st0" d="M875.3,189.6l-20.9,47.1l-20.9-47.1h-3c-1.2,0-2.3,0.4-3.3,1.3c-0.9,0.9-1.4,1.8-1.4,2.9v53.8h7.7v-39.1
		l17.3,39.1h7.2l17.1-38.5v38.5h7.7v-58H875.3z"/>
</g>
<path class="st1" d="M311,235l0-28.6h13v-7.1h-13l0-12.6h-1.8c-2.7,0-4.9,1.9-5.1,4.3l0,0v45.5c0,9.3,4.2,13.9,12.6,13.9h4.9v-7
	h-4.5C313.1,243.5,311,239.8,311,235 M558.7,186.6h-1.9c-2.8,0-5.1,1.9-5.3,4.3l0,0v46c0,9.4,4.4,14.1,13.1,14.1h5.1v-7.1H565
	c-4.2,0-6.3-3.7-6.3-8.6v-28.9h13.5v-7.1h-13.5L558.7,186.6L558.7,186.6z M420.1,199.4h-9.5c-8.8,0-13.2,4.7-13.2,14.1v37.1h7.1
	v-36.8c0-4.9,2.1-7.3,6.3-7.3h9.2V199.4z M472.3,191.3v7.9h-13.5c-14.1,0.6-25.3,11.9-25.3,25.7s11.2,25.2,25.3,25.8h21v-64.1h-1.9
	C474.8,186.7,472.3,188.8,472.3,191.3 M472.3,243.7H460c-10,0-19.1-8.9-19.1-18.6c0-9.7,9.1-18.5,19.1-18.5h12.3V243.7z
	 M607.9,199.5c-12.9,0-24.6,12-24.6,25.8s10.9,25.3,24.6,25.9h20.4v-51.7H607.9z M621.1,244h-12c-9.8,0-18.6-8.9-18.6-18.7
	c0-9.8,8.9-18.5,18.6-18.5h12V244z M239,199.3c-12.7,0-24.3,11.8-24.3,25.5s10.8,24.9,24.3,25.5h20.1v-51H239z M252,243.2h-11.8
	c-9.6,0-18.4-8.8-18.4-18.4c0-9.6,8.8-18.2,18.4-18.2H252V243.2z M359.5,199.5c-13.5,0-24.4,11.5-24.4,25.6
	c0,14.1,10.8,25.6,24.2,25.6v0h18v-7.1h-18c-8.9-0.1-16.3-7.1-17.4-16.2h41.8c0.1-0.8,0.1-1.6,0.1-2.4
	C383.9,211,373,199.5,359.5,199.5 M342.5,220.4c2-8,8.9-13.9,17.1-13.9c8.2,0,15.1,5.9,17.1,13.9H342.5z M279.8,236.7v-49.9h-2.5
	c-2.5,0-4.6,1.7-4.8,3.9l0,0v47.2c0,8.4,3.9,12.7,11.8,12.7h6.3v-7.2h-5.2C281.7,243.3,279.8,241.1,279.8,236.7 M493.1,225.2
	c0,13.8,10.9,25.2,24.5,25.8H538v-51.6h-20.4C504.8,199.4,493.1,211.3,493.1,225.2 M530.7,206.7v37.1h-11.9
	c-9.7,0-18.6-8.9-18.6-18.6c0-9.7,8.9-18.5,18.6-18.5H530.7z"/>
<rect x="661.5" y="179" class="st1" width="5.7" height="92.7"/>
</svg>
